<?xml version="1.0" encoding="utf-8"?>
<!-- Generator: Adobe Illustrator 18.0.0, SVG Export Plug-In . SVG Version: 6.00 Build 0)  -->
<!DOCTYPE svg PUBLIC "-//W3C//DTD SVG 1.1//EN" "http://www.w3.org/Graphics/SVG/1.1/DTD/svg11.dtd">
<svg version="1.1" id="Layer_1" xmlns="http://www.w3.org/2000/svg" xmlns:xlink="http://www.w3.org/1999/xlink" x="0px" y="0px"
	 viewBox="0 0 42 42" enable-background="new 0 0 42 42" xml:space="preserve">
<g>
	<path fill="#FFFFFF" d="M11.7,14.4l1.1,8.1c1.3-1.6,2.9-3.1,4.7-4.5c6.7-5.4,16.4-7.3,21.7-7.4C35.7,4.2,28.8-0.1,21-0.1
		c-11.6,0-21,9.4-21,21c0,1.9,0.3,3.8,0.7,5.5l10.2-12H11.7z"/>
	<path fill="#FFFFFF" d="M39.3,10.7c-5,1.1-10.2,3-14.2,5.8c-4.5,3.1-7.6,7.1-8.6,10.4l-0.1,0.2l-0.2,0.5l-6.3,0l-0.7,0l-1.1-8.3
		l-7.2,8.4C3.9,36,11.8,41.9,21,41.9c11.6,0,21-9.4,21-21C42,17.2,41,13.7,39.3,10.7z M26.4,22.1h-2.1v2.1h1.4v0.7h-1.4V27h2.1v0.7
		H23v-6.2h3.4V22.1z M30.7,23.3l1.5,1.7c0.3,0.3,0.4,0.6,0.4,1v0.4c0,0.4-0.1,0.7-0.4,1c-0.3,0.3-0.6,0.4-1,0.4h-0.7
		c-0.5,0-0.8-0.1-1.1-0.4c-0.2-0.2-0.4-0.6-0.4-1.1h0.7c0,0,0,0.1,0,0.1c0,0.2,0.1,0.3,0.2,0.4c0.1,0.1,0.3,0.1,0.5,0.1
		c0.2,0,0.4-0.1,0.5-0.2c0.1-0.1,0.2-0.3,0.2-0.5c0-0.2-0.1-0.3-0.2-0.5l-1.5-1.7c-0.3-0.3-0.4-0.6-0.4-1v-0.4c0-0.4,0.1-0.7,0.4-1
		c0.3-0.3,0.6-0.4,1-0.4h0.7c0.9,0,1.3,0.5,1.4,1.4h-0.7c-0.1-0.5-0.3-0.7-0.7-0.7c-0.2,0-0.4,0.1-0.6,0.2c-0.1,0.1-0.2,0.3-0.2,0.5
		C30.5,23,30.6,23.2,30.7,23.3z M38.8,26.3c0,0.4-0.1,0.7-0.4,1c-0.3,0.3-0.6,0.4-1,0.4h-0.7c-0.5,0-0.8-0.1-1.1-0.4
		c-0.2-0.2-0.4-0.6-0.4-1.1H36c0,0,0,0.1,0,0.1c0,0.2,0.1,0.3,0.2,0.4c0.1,0.1,0.3,0.1,0.5,0.1c0.2,0,0.4-0.1,0.5-0.2
		c0.1-0.1,0.2-0.3,0.2-0.5c0-0.2-0.1-0.3-0.2-0.5l-1.5-1.7c-0.3-0.3-0.4-0.6-0.4-1v-0.4c0-0.4,0.1-0.7,0.4-1c0.3-0.3,0.6-0.4,1-0.4
		h0.7c0.9,0,1.3,0.5,1.4,1.4h-0.7c-0.1-0.5-0.3-0.7-0.7-0.7c-0.2,0-0.4,0.1-0.6,0.2c-0.1,0.1-0.2,0.3-0.2,0.5c0,0.2,0.1,0.3,0.2,0.5
		l1.5,1.7c0.3,0.3,0.4,0.6,0.4,1V26.3z"/>
</g>
</svg>
